<?xml version="1.0" standalone="no"?>
<!DOCTYPE svg PUBLIC "-//W3C//DTD SVG 20010904//EN"
 "http://www.w3.org/TR/2001/REC-SVG-20010904/DTD/svg10.dtd">
<svg version="1.0" xmlns="http://www.w3.org/2000/svg"
 width="660.000000pt" height="384.000000pt" viewBox="0 0 660.000000 384.000000"
 preserveAspectRatio="xMidYMid meet">

<g transform="translate(0.000000,384.000000) scale(0.100000,-0.100000)"
fill="#000000" stroke="none">
<path d="M510 3100 l0 -360 1348 0 1348 0 204 -246 c113 -136 269 -324 347
-418 79 -94 143 -175 143 -181 0 -5 -64 -87 -143 -181 -78 -94 -234 -282 -347
-418 l-204 -246 -1348 0 -1348 0 0 -360 0 -360 1523 0 1522 1 42 52 c64 79
764 921 775 932 6 7 17 1 31 -16 12 -14 198 -238 412 -497 l390 -471 474 0
c443 -1 473 0 460 16 -26 31 -571 688 -609 733 -57 67 -490 590 -586 707 -46
55 -84 104 -84 108 0 4 38 53 84 108 96 117 529 640 586 707 38 45 583 702
609 733 13 16 -17 17 -460 16 l-474 0 -390 -471 c-214 -259 -400 -483 -412
-497 -14 -17 -25 -23 -31 -16 -11 11 -711 853 -775 932 l-42 52 -1522 1 -1523
0 0 -360z"/>
<path d="M515 2247 c-3 -6 -4 -170 -3 -362 l3 -350 1305 0 1305 0 0 360 0 360
-1303 3 c-1040 2 -1304 0 -1307 -11z"/>
</g>
</svg>
